<svg width="71" height="81" viewBox="0 0 71 81" fill="none" xmlns="http://www.w3.org/2000/svg">
<path d="M50.952 80.52L42.312 68.904C39.752 69.416 37.256 69.672 34.824 69.672C28.488 69.672 22.664 68.2 17.352 65.256C12.104 62.312 7.912 58.216 4.776 52.968C1.704 47.656 0.168 41.704 0.168 35.112C0.168 28.52 1.704 22.6 4.776 17.352C7.912 12.104 12.104 8.008 17.352 5.064C22.664 2.12 28.488 0.647999 34.824 0.647999C41.16 0.647999 46.952 2.12 52.2 5.064C57.512 8.008 61.672 12.104 64.68 17.352C67.752 22.6 69.288 28.52 69.288 35.112C69.288 40.872 68.104 46.152 65.736 50.952C63.432 55.688 60.2 59.624 56.04 62.76L70.824 80.52H50.952ZM16.968 35.112C16.968 41.064 18.568 45.832 21.768 49.416C25.032 52.936 29.384 54.696 34.824 54.696C40.2 54.696 44.488 52.904 47.688 49.32C50.952 45.736 52.584 41 52.584 35.112C52.584 29.16 50.952 24.424 47.688 20.904C44.488 17.32 40.2 15.528 34.824 15.528C29.384 15.528 25.032 17.288 21.768 20.808C18.568 24.328 16.968 29.096 16.968 35.112Z" fill="#12E3A5"/>
</svg>
