<svg xmlns="http://www.w3.org/2000/svg" viewBox="0 0 85.77 53.7"><defs><style>.cls-1{fill:#535b65;}.cls-2{fill:#b9bcba;}.cls-3{fill:#34373d;}.cls-4{fill:#fbb03b;}.cls-5{fill:#e58126;}.cls-6{fill:#fff;}.cls-7{fill:#1b2326;}</style></defs><title>truck</title><g id="Capa_2" data-name="Capa 2"><g id="Layer_1" data-name="Layer 1"><rect class="cls-1" x="1.81" y="23.08" width="56.29" height="18.19" transform="translate(59.91 64.34) rotate(180)"/><rect class="cls-2" x="29.63" y="32.53" width="14.76" height="12.81" rx="1.53" transform="translate(74.02 77.87) rotate(180)"/><circle class="cls-3" cx="15.62" cy="40.65" r="13.05"/><path class="cls-4" d="M9.18,40.65a6.44,6.44,0,1,0,6.44-6.44A6.44,6.44,0,0,0,9.18,40.65Z"/><circle class="cls-3" cx="58.1" cy="40.65" r="13.05"/><circle class="cls-4" cx="58.1" cy="40.65" r="6.44"/><path class="cls-4" d="M30.18,31.91h.74l-5.29-8.83H1.82v8.83h.75L8,25.1H23.42Z"/><polygon class="cls-4" points="32.02 31.32 18.99 8.87 2.57 8.87 2.57 6.65 24.04 6.65 26.42 9.03 80.1 9.03 85.77 19.52 32.02 31.32"/><polygon class="cls-5" points="84 18.71 79.4 10.2 21.12 10.2 32.61 29.99 84 18.71"/><rect class="cls-5" y="23.08" width="1.81" height="18.19" transform="translate(1.81 64.34) rotate(180)"/><polygon class="cls-5" points="20.85 23.08 20.85 15.95 19.11 12.38 7.46 12.38 10.44 23.08 20.85 23.08"/><polygon class="cls-6" points="11.46 19.78 17.41 19.78 17.41 13.26 12.98 13.26 11.46 19.78"/><polygon class="cls-6" points="11.86 13.26 10.33 19.78 8.51 13.26 11.86 13.26"/><rect class="cls-1" x="40.84" y="32.53" width="1.04" height="12.81" transform="translate(82.72 77.87) rotate(180)"/><rect class="cls-1" x="32.14" y="32.53" width="1.04" height="12.81"/><path class="cls-1" d="M36.34,35.44a.67.67,0,1,0,.67-.67A.67.67,0,0,0,36.34,35.44Z"/><polygon class="cls-4" points="33.87 10.2 43.92 27.51 38.13 28.77 27.35 10.2 33.87 10.2"/><polygon class="cls-4" points="47.48 10.2 55.98 24.86 50.2 26.13 40.96 10.2 47.48 10.2"/><polygon class="cls-4" points="61.08 10.2 68.05 22.21 62.27 23.48 54.56 10.2 61.08 10.2"/><polygon class="cls-4" points="74.69 10.2 80.12 19.56 74.34 20.83 68.17 10.2 74.69 10.2"/><polygon class="cls-7" points="26.52 9.03 28.57 7.97 29.72 6.11 33.02 6.11 35.99 4.02 39.07 2.39 41.92 5.71 49.68 2.39 52.42 0 58.23 1.2 60.4 4.02 65.76 4.52 67.59 5.18 70.56 7.97 73.64 9.03 26.52 9.03"/></g></g></svg>