<svg width="262" height="44" viewBox="0 0 262 44" fill="none" xmlns="http://www.w3.org/2000/svg">
<path fill-rule="evenodd" clip-rule="evenodd" d="M236.08 42.7823H246.795V20.2952C246.795 13.8819 249.15 10.5535 253.696 10.5535C254.913 10.5535 255.725 10.797 257.024 11.3653L261.489 1.13653C259.622 0.405904 257.755 0 255.969 0C251.991 0 248.419 1.78598 246.065 4.87085V1.38007H236.08V42.7823ZM113.35 1.38007H103.202V5.03321C99.5492 1.94834 94.8407 0.16236 89.7264 0.16236C77.7928 0.16236 68.2134 9.90406 68.2134 22.0812C68.2134 34.2583 77.7928 44 89.7264 44C93.1689 44 96.4275 43.1908 99.3041 41.721L95.2365 33.3315C93.9569 33.8271 92.5653 34.0959 91.1064 34.0959C84.612 34.0959 79.4976 28.9004 79.4976 22.0812C79.4976 15.262 84.612 10.0664 91.1064 10.0664C92.3795 10.0664 93.6014 10.2711 94.7422 10.6526L94.7449 10.6482C95.9535 11.0108 97.0002 11.5857 97.9043 12.3088C100.331 14.1221 102.03 16.9096 102.502 20.2029C103.011 22.185 103.201 24.0747 103.201 25.4468V39.1301L103.202 39.1292V42.7823H113.35V1.38007ZM14.4502 42.7823H24.7601L33.7712 15.4244L42.9446 42.7823H53.1734L66.9742 1.38007H56.0959L47.7343 28.1697L39.048 1.38007H28.9004L20.1328 28.2509L11.6089 1.38007H0L14.4502 42.7823ZM134.123 44C128.197 44 121.702 41.7269 118.292 38.3985L123.488 30.9299C126.898 33.6089 130.226 34.9077 133.23 34.9077C136.233 34.9077 137.938 33.6089 137.938 31.2546C137.938 29.3063 136.721 28.1697 132.174 26.2214L130.388 25.4908C123.001 22.4059 119.591 18.8339 119.591 13.2325C119.591 5.60148 125.761 0.16236 134.935 0.16236C139.724 0.16236 144.92 1.70479 148.167 4.05904L143.54 12.0959C140.942 10.2288 138.425 9.25461 135.584 9.25461C132.499 9.25461 130.713 10.4723 130.713 12.583C130.713 14.369 132.093 15.5867 137.208 17.7786L138.507 18.3469C146.219 21.6753 149.222 25.0849 149.222 30.7675C149.222 38.6421 143.296 44 134.123 44ZM151.906 38.3985C155.316 41.7269 161.81 44 167.737 44C176.91 44 182.836 38.6421 182.836 30.7675C182.836 25.0849 179.833 21.6753 172.12 18.3469L170.822 17.7786C165.707 15.5867 164.327 14.369 164.327 12.583C164.327 10.4723 166.113 9.25461 169.198 9.25461C172.039 9.25461 174.556 10.2288 177.154 12.0959L181.781 4.05904C178.534 1.70479 173.338 0.16236 168.548 0.16236C159.375 0.16236 153.205 5.60148 153.205 13.2325C153.205 18.8339 156.615 22.4059 164.002 25.4908L165.788 26.2214C170.334 28.1697 171.552 29.3063 171.552 31.2546C171.552 33.6089 169.847 34.9077 166.844 34.9077C163.84 34.9077 160.512 33.6089 157.102 30.9299L151.906 38.3985ZM216.024 32.941C214.276 33.8982 212.367 34.3395 210.109 34.3395C203.939 34.3395 199.799 31.0922 198.743 26.059H229.998C230.16 24.5166 230.241 22.9742 230.241 21.7565C230.241 9.49815 221.393 0.16236 209.216 0.16236C196.714 0.16236 186.972 9.82288 186.972 22.2435C186.972 34.7454 196.876 44 210.352 44C217.27 44 223.274 41.5828 227.484 37.1588L216.024 32.941ZM209.134 9.66051C203.695 9.66051 200.367 12.9889 199.068 17.5351H218.795C218.146 12.8266 214.411 9.66051 209.134 9.66051Z" fill="#F5716C"/>
</svg>
